<svg width="126" height="30" viewBox="0 0 126 30" fill="none" xmlns="http://www.w3.org/2000/svg">
<g clipPath="url(#clip0_87_1223)">
<path d="M35.4 9.25997H38.61V22.26H35.4V9.25997ZM39.89 17.37C39.89 14.15 41.89 12.22 44.89 12.22C47.89 12.22 49.89 14.15 49.89 17.37C49.89 20.59 47.96 22.54 44.89 22.54C41.82 22.54 39.89 20.66 39.89 17.37ZM46.71 17.37C46.71 15.6 46.02 14.56 44.92 14.56C43.82 14.56 43.14 15.56 43.14 17.37C43.14 19.18 43.82 20.17 44.92 20.17C46.02 20.17 46.73 19.18 46.73 17.38L46.71 17.37ZM51.17 22.93H54.27C54.4111 23.2637 54.6576 23.5421 54.9718 23.7227C55.2859 23.9033 55.6506 23.976 56.01 23.93C57.24 23.93 57.88 23.27 57.88 22.29V20.49H57.89C57.6251 21.0505 57.1967 21.5176 56.6613 21.83C56.1258 22.1424 55.5083 22.2853 54.89 22.24C52.54 22.24 50.98 20.45 50.98 17.37C50.98 14.29 52.47 12.37 54.98 12.37C55.6141 12.336 56.2431 12.4996 56.7804 12.8381C57.3177 13.1766 57.7368 13.6734 57.98 14.26H57.89V12.45H61.07V22.19C61.07 24.54 58.99 26.01 55.93 26.01C53.15 26 51.37 24.73 51.19 22.94L51.17 22.93ZM57.89 17.37C57.89 15.8 57.17 14.81 56.03 14.81C54.89 14.81 54.19 15.81 54.19 17.37C54.19 18.93 54.88 19.85 56.03 19.85C57.18 19.85 57.89 19 57.89 17.37ZM62.34 17.37C62.34 14.15 64.34 12.22 67.34 12.22C70.34 12.22 72.34 14.15 72.34 17.37C72.34 20.59 70.4 22.54 67.34 22.54C64.28 22.54 62.36 20.66 62.36 17.37H62.34ZM69.16 17.37C69.16 15.6 68.46 14.56 67.37 14.56C66.28 14.56 65.59 15.56 65.59 17.37C65.59 19.18 66.27 20.17 67.37 20.17C68.47 20.17 69.18 19.18 69.18 17.38L69.16 17.37ZM73.64 10.08C73.626 9.75299 73.7102 9.42931 73.8817 9.15057C74.0532 8.87182 74.3042 8.65076 74.6024 8.51584C74.9006 8.38091 75.2323 8.33828 75.5549 8.39343C75.8775 8.44858 76.1762 8.59899 76.4126 8.82531C76.649 9.05164 76.8123 9.34351 76.8815 9.6634C76.9506 9.98329 76.9225 10.3166 76.8007 10.6203C76.6789 10.9241 76.469 11.1845 76.198 11.368C75.927 11.5515 75.6073 11.6497 75.28 11.65C75.0708 11.6553 74.8627 11.619 74.6677 11.5432C74.4727 11.4675 74.2946 11.3537 74.1439 11.2086C73.9932 11.0635 73.8728 10.8898 73.7898 10.6978C73.7067 10.5058 73.6626 10.2992 73.66 10.09L73.64 10.08ZM73.64 12.44H76.89V22.3H73.69L73.64 12.44ZM88.58 17.37C88.58 20.58 87.14 22.44 84.69 22.44C84.0628 22.4787 83.4388 22.3239 82.9023 21.9967C82.3658 21.6694 81.9426 21.1854 81.69 20.61H81.63V25.47H78.42V12.47H81.61V14.23H81.67C81.914 13.6432 82.333 13.146 82.8698 12.806C83.4067 12.466 84.0353 12.2998 84.67 12.33C87.19 12.31 88.64 14.16 88.64 17.38L88.58 17.37ZM85.31 17.37C85.31 15.81 84.58 14.8 83.45 14.8C82.32 14.8 81.61 15.8 81.6 17.37C81.59 18.94 82.32 19.93 83.45 19.93C84.58 19.93 85.37 19 85.37 17.38L85.31 17.37ZM94.06 12.21C96.75 12.21 98.42 13.48 98.44 15.52H95.51C95.51 14.81 94.92 14.37 94.04 14.37C93.16 14.37 92.74 14.71 92.74 15.22C92.74 15.73 93.11 15.89 93.85 16.04L95.91 16.46C97.91 16.88 98.71 17.68 98.71 19.17C98.71 21.17 96.86 22.53 94.11 22.53C91.36 22.53 89.57 21.21 89.44 19.2H92.55C92.64 19.93 93.22 20.36 94.16 20.36C95.1 20.36 95.54 20.06 95.54 19.53C95.54 19 95.24 18.91 94.47 18.75L92.61 18.36C90.68 17.95 89.67 16.94 89.67 15.43C89.73 13.47 91.41 12.22 94.12 12.22L94.06 12.21ZM109.46 22.29H106.35V20.44H106.29C106.116 21.057 105.737 21.5964 105.215 21.969C104.693 22.3417 104.06 22.5254 103.42 22.49C102.937 22.5057 102.455 22.4191 102.008 22.2357C101.56 22.0524 101.157 21.7765 100.824 21.4261C100.49 21.0758 100.235 20.6589 100.074 20.2029C99.9129 19.7468 99.8503 19.2619 99.89 18.78V12.45H103.1V18.09C103.1 19.25 103.71 19.88 104.71 19.88C104.945 19.8782 105.176 19.8261 105.389 19.7272C105.602 19.6284 105.791 19.485 105.943 19.3068C106.096 19.1286 106.209 18.9197 106.273 18.6943C106.338 18.4688 106.354 18.2321 106.32 18V12.45H109.52L109.46 22.29ZM111.01 12.44H114.13V14.34H114.2C114.372 13.7313 114.742 13.197 115.25 12.8206C115.759 12.4443 116.378 12.2471 117.01 12.26C117.645 12.2048 118.278 12.3884 118.784 12.7749C119.291 13.1614 119.635 13.723 119.75 14.35H119.89C120.09 13.7197 120.492 13.1731 121.035 12.7951C121.577 12.4172 122.23 12.229 122.89 12.26C123.329 12.2433 123.767 12.3195 124.174 12.4835C124.582 12.6476 124.95 12.8959 125.255 13.2121C125.56 13.5284 125.794 13.9054 125.943 14.3187C126.093 14.7319 126.153 15.1719 126.12 15.61V22.3H122.89V16.43C122.89 15.43 122.42 14.87 121.51 14.87C121.308 14.8667 121.108 14.907 120.923 14.9883C120.738 15.0696 120.573 15.1899 120.44 15.3409C120.306 15.4919 120.206 15.6701 120.147 15.8633C120.089 16.0564 120.073 16.26 120.1 16.46V22.3H117.04V16.4C117.04 15.4 116.55 14.87 115.67 14.87C115.466 14.8684 115.264 14.9104 115.078 14.9932C114.891 15.0761 114.725 15.1978 114.589 15.3503C114.454 15.5028 114.353 15.6825 114.292 15.8773C114.232 16.0722 114.214 16.2776 114.24 16.48V22.3H111.03L111.01 12.44ZM29.05 10.11C29.0501 8.11967 28.4491 6.17573 27.3257 4.53279C26.2022 2.88985 24.6088 1.6245 22.7541 0.902497C20.8993 0.180491 18.8698 0.0354893 16.9313 0.486481C14.9927 0.937473 13.2356 1.96343 11.89 3.42997H-0.589996V29.77H25.76V17.46C26.7942 16.5349 27.6218 15.4022 28.1887 14.1358C28.7556 12.8693 29.0491 11.4975 29.05 10.11ZM23.98 10.11C23.982 11.0637 23.701 11.9966 23.1726 12.7905C22.6441 13.5845 21.892 14.2038 21.0115 14.5702C20.1309 14.9365 19.1615 15.0334 18.2258 14.8486C17.2902 14.6637 16.4304 14.2055 15.7553 13.5318C15.0802 12.8581 14.6202 11.9993 14.4334 11.064C14.2466 10.1287 14.3414 9.15908 14.706 8.27776C15.0705 7.39643 15.6883 6.64306 16.4811 6.11299C17.274 5.58292 18.2063 5.29997 19.16 5.29997C20.4366 5.29997 21.6611 5.80642 22.5647 6.70818C23.4684 7.60994 23.9774 8.83336 23.98 10.11ZM20.69 24.7H4.48V8.49997H9.42C9.32458 9.03144 9.2744 9.57003 9.27 10.11C9.27265 12.7322 10.3155 15.2462 12.1696 17.1003C14.0238 18.9545 16.5378 19.9973 19.16 20C19.6726 19.9973 20.1843 19.9538 20.69 19.87V24.7Z" fill="#394149"/>
</g>
<defs>
<clipPath id="clip0_87_1223">
<rect width="126" height="30" fill="white"/>
</clipPath>
</defs>
</svg>
